<svg xmlns="http://www.w3.org/2000/svg" viewBox="0 0 531.37 113.18"><defs><style>.cls-1{fill:#20c997;}</style></defs><g id="Layer_2" data-name="Layer 2"><g id="Layer_1-2" data-name="Layer 1"><path class="cls-1" d="M157.73,61a33.48,33.48,0,0,0,8,6.9,15.68,15.68,0,0,0,7.89,2.28,9,9,0,0,0,6-2,6.18,6.18,0,0,0,2.36-5,6.54,6.54,0,0,0-2-5.14c-1.36-1.19-4.42-2.44-9.2-3.72q-9.84-2.66-13.92-6.9t-4.08-11.66q0-9.63,6.43-15.67c4.28-4.05,9.86-6.06,16.67-6.06a36.82,36.82,0,0,1,10.51,1.48,34,34,0,0,1,9.41,4.52l-5.73,13.1a24.09,24.09,0,0,0-6.38-4,17,17,0,0,0-6.46-1.34,8.63,8.63,0,0,0-5.35,1.57,4.87,4.87,0,0,0-2,4,5,5,0,0,0,1.79,4c1.2,1,3.53,2,7,2.88l.83.23q11.16,3,14.69,6.63a16.3,16.3,0,0,1,3.62,5.92A22.46,22.46,0,0,1,199,60.78q0,10.66-7,17.12t-18.67,6.49A33.17,33.17,0,0,1,160.54,82a36.21,36.21,0,0,1-11-7.46Z"/><polygon class="cls-1" points="209.16 82.6 209.16 15.64 227.23 15.64 227.23 46.07 248.4 15.64 269.66 15.64 244.94 48.29 271.81 82.6 249.04 82.6 227.23 52.56 227.23 82.6 209.16 82.6"/><polygon class="cls-1" points="277.54 82.6 277.54 15.64 296 15.64 296 82.6 277.54 82.6"/><path class="cls-1" d="M310.69,82.6v-67h13.95q15.58,0,22.05,1.47A31.62,31.62,0,0,1,358.05,22a28.73,28.73,0,0,1,9.66,11.36A36.56,36.56,0,0,1,371,49.17,36.44,36.44,0,0,1,367.71,65a28.55,28.55,0,0,1-9.66,11.37A31.4,31.4,0,0,1,347,81.16q-6.21,1.44-19.27,1.44h-17Zm18.07-15h3.06c7.16,0,12.4-1.46,15.71-4.42s4.93-7.6,4.93-14-1.64-11.09-4.93-14.08-8.55-4.48-15.71-4.48h-3.06Z"/><path class="cls-1" d="M398.52,57.6h18.15l-6.82-22.1c-.2-.68-.5-1.75-.86-3.25s-.84-3.42-1.41-5.76c-.4,1.64-.79,3.21-1.18,4.71s-.77,2.92-1.16,4.3Zm-25.59,25,23.12-67h22.87l23.13,67H423.9l-3.39-12H394.58l-3.48,12Z"/><path class="cls-1" d="M492.41,15.64l8.41,31.85c.39,1.42.77,2.91,1.09,4.48s.69,3.34,1.07,5.35c.45-2.39.84-4.34,1.15-5.89s.64-2.86.94-3.94l7.86-31.85h18.44l-18.93,67H495.52L487.24,54c-.31-1-.81-3-1.52-5.9-.29-1.31-.54-2.33-.73-3.06-.14.63-.35,1.54-.64,2.7-.7,3-1.23,5-1.59,6.26L474.61,82.6h-17l-18.9-67h18.45l7.68,32c.38,1.65.73,3.29,1.07,4.94s.7,3.34,1,5.07c.28-1.28.58-2.61.9-4s.8-3.41,1.45-6l8.41-32Z"/><path class="cls-1" d="M12.34,21.89,36.15,4.7,42.65,0,39.79,20.06,24.09,31.39C7.7,43.22,20.73,68.59,38.79,58.76c.62-.34,11.83-8.39,22.83-16.31l32.17,7.67c2.39-1.72-41.41,29.86-42,30.26-24.06,14.94-55.3-15-51.42-39A29.79,29.79,0,0,1,12.34,21.89ZM66.56,13,34.34,36l19,4.52c.37-.27,22.52-16.17,22.9-16.4C94.58,12.42,116.36,37.27,99.54,53c-.78.72-66,47.87-66.91,48.55C46.34,116.21,60,117,77.84,104.1c.72-.52,37.21-26.9,37.87-27.45C140.53,56,119.35,11.43,91.93,7A33.92,33.92,0,0,0,66.56,13Z"/></g></g></svg>